<svg width="911" height="960" viewBox="0 0 911 960" fill="none" xmlns="http://www.w3.org/2000/svg">
<path fill-rule="evenodd" clip-rule="evenodd" d="M435.606 56.9473C442.398 51.7112 450.789 48.489 459.18 48.489C471.965 48.489 483.952 54.1278 491.543 64.1972L720.486 359.832V595.857L788.809 664.328C804.392 680.036 804.392 705.813 788.809 721.521C773.227 737.23 747.655 737.23 732.073 721.521L640.576 628.884V387.623L428.414 113.738V113.335C414.829 96.0162 418.026 70.6415 435.606 56.9473ZM910.844 691.841C904.052 690.14 897.613 686.608 892.293 681.244L811.983 600.287C802.794 591.023 798.798 578.537 800.396 566.857V330.43H799.198L569.056 33.1837C562.952 25.4011 560.236 15.992 560.655 6.74696C534.432 2.31018 507.486 0 480 0C214.903 0 0 214.903 0 480C0 745.097 214.903 960 480 960C669.058 960 832.587 850.699 910.844 691.841Z" fill="#F9FAFD"/>
</svg>